<svg width="343" height="48" viewBox="0 0 343 48" fill="none" xmlns="http://www.w3.org/2000/svg">
<rect width="343" height="48" rx="6" fill="#08154D"/>
<path d="M86.5016 10H86.4984C78.7673 10 72.5 16.2673 72.5 23.9984V24.0016C72.5 31.7327 78.7673 38 86.4984 38H86.5016C94.2327 38 100.5 31.7327 100.5 24.0016V23.9984C100.5 16.2673 94.2327 10 86.5016 10Z" fill="white"/>
<path d="M90.7771 25.0106C90.5856 24.6274 90.3141 24.2922 89.9789 24.024C89.6628 23.7717 89.3051 23.5769 88.9252 23.4492C89.3945 23.2385 89.7905 22.8904 90.0651 22.4562C90.3269 22.0219 90.4578 21.5238 90.4514 21.0161C90.4514 20.0326 90.1545 19.2854 89.5606 18.7714C88.9667 18.2573 88.0854 17.9986 86.9231 17.9986H81.9164V21.4535L83.7684 19.7804H86.6134C87.1115 19.7644 87.6032 19.8921 88.0279 20.1476C88.4111 20.3934 88.6027 20.8021 88.6027 21.3737C88.625 21.8271 88.4239 22.2646 88.063 22.5392C87.7054 22.8138 87.2712 22.9639 86.8209 22.967H83.7684L81.9164 24.7392V26.4571L83.7684 24.7488H86.904C87.2616 24.7488 87.616 24.7999 87.9577 24.902C88.2897 24.9946 88.5931 25.1735 88.8421 25.4161C89.0944 25.6907 89.2253 26.0547 89.1998 26.4283C89.2381 26.952 89.005 27.4597 88.5835 27.7726C88.1109 28.0823 87.5553 28.2324 86.9902 28.2101H83.7652L81.9387 29.9918H87.0891C87.5617 29.9918 88.0343 29.9375 88.4973 29.8289C88.9571 29.7236 89.3913 29.5352 89.7841 29.2702C90.1832 28.9956 90.5089 28.622 90.7261 28.1909C90.9847 27.6513 91.106 27.0574 91.0869 26.4603C91.1028 25.9558 90.9975 25.4576 90.7803 25.001L90.7771 25.0106Z" fill="#08154D"/>
<path d="M118.062 29.14C117.362 29.14 116.713 29.014 116.116 28.762C115.519 28.51 114.996 28.16 114.548 27.712C114.109 27.2547 113.769 26.718 113.526 26.102C113.283 25.486 113.162 24.814 113.162 24.086C113.162 23.358 113.283 22.686 113.526 22.07C113.769 21.454 114.109 20.922 114.548 20.474C114.996 20.0167 115.519 19.662 116.116 19.41C116.713 19.158 117.362 19.032 118.062 19.032C118.771 19.032 119.425 19.158 120.022 19.41C120.619 19.662 121.137 20.0167 121.576 20.474C122.015 20.9313 122.355 21.468 122.598 22.084C122.841 22.6907 122.962 23.358 122.962 24.086C122.962 24.8047 122.841 25.472 122.598 26.088C122.355 26.704 122.015 27.2407 121.576 27.698C121.137 28.1553 120.619 28.51 120.022 28.762C119.425 29.014 118.771 29.14 118.062 29.14ZM118.062 27.404C118.51 27.404 118.916 27.3247 119.28 27.166C119.653 26.998 119.975 26.7647 120.246 26.466C120.517 26.158 120.727 25.8033 120.876 25.402C121.035 25.0007 121.114 24.562 121.114 24.086C121.114 23.61 121.035 23.1713 120.876 22.77C120.727 22.3687 120.517 22.0187 120.246 21.72C119.975 21.412 119.653 21.1787 119.28 21.02C118.916 20.852 118.51 20.768 118.062 20.768C117.623 20.768 117.217 20.852 116.844 21.02C116.471 21.1787 116.149 21.4073 115.878 21.706C115.607 22.0047 115.397 22.3547 115.248 22.756C115.099 23.1573 115.024 23.6007 115.024 24.086C115.024 24.562 115.099 25.0053 115.248 25.416C115.397 25.8173 115.607 26.1673 115.878 26.466C116.149 26.7647 116.471 26.998 116.844 27.166C117.217 27.3247 117.623 27.404 118.062 27.404ZM124.768 29V21.622H126.448L126.476 23.134L126.154 23.302C126.247 22.966 126.429 22.6627 126.7 22.392C126.97 22.112 127.292 21.888 127.666 21.72C128.039 21.552 128.422 21.468 128.814 21.468C129.374 21.468 129.84 21.58 130.214 21.804C130.596 22.028 130.881 22.364 131.068 22.812C131.264 23.26 131.362 23.82 131.362 24.492V29H129.64V24.618C129.64 24.2447 129.588 23.9367 129.486 23.694C129.383 23.442 129.224 23.26 129.01 23.148C128.795 23.0267 128.534 22.9707 128.226 22.98C127.974 22.98 127.74 23.022 127.526 23.106C127.32 23.1807 127.138 23.2927 126.98 23.442C126.83 23.582 126.709 23.7453 126.616 23.932C126.532 24.1187 126.49 24.324 126.49 24.548V29H125.636C125.468 29 125.309 29 125.16 29C125.02 29 124.889 29 124.768 29ZM136.897 29.14C136.122 29.14 135.436 28.9767 134.839 28.65C134.251 28.3233 133.789 27.88 133.453 27.32C133.126 26.7507 132.963 26.102 132.963 25.374C132.963 24.7953 133.056 24.268 133.243 23.792C133.429 23.316 133.686 22.9053 134.013 22.56C134.349 22.2053 134.745 21.9347 135.203 21.748C135.669 21.552 136.178 21.454 136.729 21.454C137.214 21.454 137.667 21.5473 138.087 21.734C138.507 21.9207 138.871 22.1773 139.179 22.504C139.487 22.8213 139.72 23.204 139.879 23.652C140.047 24.0907 140.126 24.5713 140.117 25.094L140.103 25.696H134.125L133.803 24.52H138.661L138.437 24.758V24.45C138.409 24.1607 138.315 23.9087 138.157 23.694C137.998 23.47 137.793 23.2973 137.541 23.176C137.298 23.0453 137.027 22.98 136.729 22.98C136.271 22.98 135.884 23.0687 135.567 23.246C135.259 23.4233 135.025 23.68 134.867 24.016C134.708 24.3427 134.629 24.7533 134.629 25.248C134.629 25.724 134.727 26.1393 134.923 26.494C135.128 26.8487 135.413 27.124 135.777 27.32C136.15 27.5067 136.584 27.6 137.079 27.6C137.424 27.6 137.741 27.544 138.031 27.432C138.32 27.32 138.633 27.1193 138.969 26.83L139.823 28.02C139.571 28.2533 139.281 28.454 138.955 28.622C138.637 28.7807 138.301 28.9067 137.947 29C137.592 29.0933 137.242 29.14 136.897 29.14ZM141.502 25.822V24.17H145.828V25.822H141.502ZM152.171 29.14C151.462 29.14 150.813 29.0187 150.225 28.776C149.637 28.5333 149.128 28.188 148.699 27.74C148.27 27.2827 147.934 26.746 147.691 26.13C147.458 25.5047 147.341 24.8233 147.341 24.086C147.341 23.3767 147.467 22.7187 147.719 22.112C147.971 21.5053 148.321 20.9733 148.769 20.516C149.217 20.0587 149.74 19.704 150.337 19.452C150.934 19.2 151.583 19.074 152.283 19.074C152.759 19.074 153.221 19.144 153.669 19.284C154.117 19.424 154.528 19.62 154.901 19.872C155.274 20.1147 155.587 20.3993 155.839 20.726L154.677 22C154.434 21.748 154.182 21.538 153.921 21.37C153.669 21.1927 153.403 21.062 153.123 20.978C152.852 20.8847 152.572 20.838 152.283 20.838C151.854 20.838 151.448 20.9173 151.065 21.076C150.692 21.2347 150.365 21.4587 150.085 21.748C149.814 22.0373 149.6 22.3827 149.441 22.784C149.282 23.176 149.203 23.6147 149.203 24.1C149.203 24.5947 149.278 25.0427 149.427 25.444C149.586 25.8453 149.805 26.1907 150.085 26.48C150.374 26.7693 150.715 26.9933 151.107 27.152C151.508 27.3013 151.947 27.376 152.423 27.376C152.731 27.376 153.03 27.334 153.319 27.25C153.608 27.166 153.874 27.0493 154.117 26.9C154.369 26.7413 154.598 26.5593 154.803 26.354L155.699 27.796C155.475 28.048 155.176 28.2767 154.803 28.482C154.43 28.6873 154.01 28.8507 153.543 28.972C153.086 29.084 152.628 29.14 152.171 29.14ZM157.429 29V18.64H159.165V29H157.429ZM161.525 29V21.622H163.247V29H161.525ZM162.365 20.054C162.02 20.054 161.749 19.97 161.553 19.802C161.366 19.6247 161.273 19.3773 161.273 19.06C161.273 18.7613 161.371 18.5187 161.567 18.332C161.763 18.1453 162.029 18.052 162.365 18.052C162.72 18.052 162.99 18.1407 163.177 18.318C163.373 18.486 163.471 18.7333 163.471 19.06C163.471 19.3493 163.373 19.5873 163.177 19.774C162.981 19.9607 162.71 20.054 162.365 20.054ZM168.734 29.14C168.044 29.14 167.423 28.972 166.872 28.636C166.322 28.3 165.888 27.8427 165.57 27.264C165.253 26.6853 165.094 26.032 165.094 25.304C165.094 24.576 165.253 23.9227 165.57 23.344C165.888 22.7653 166.322 22.308 166.872 21.972C167.423 21.636 168.044 21.468 168.734 21.468C169.397 21.468 169.999 21.594 170.54 21.846C171.082 22.098 171.502 22.448 171.8 22.896L170.848 24.044C170.708 23.848 170.531 23.6707 170.316 23.512C170.102 23.3533 169.873 23.2273 169.63 23.134C169.388 23.0407 169.145 22.994 168.902 22.994C168.492 22.994 168.123 23.0967 167.796 23.302C167.479 23.498 167.227 23.7733 167.04 24.128C166.854 24.4733 166.76 24.8653 166.76 25.304C166.76 25.7427 166.854 26.1347 167.04 26.48C167.236 26.8253 167.498 27.1007 167.824 27.306C168.151 27.5113 168.515 27.614 168.916 27.614C169.159 27.614 169.392 27.5767 169.616 27.502C169.85 27.418 170.069 27.3013 170.274 27.152C170.48 27.0027 170.671 26.816 170.848 26.592L171.8 27.754C171.483 28.1647 171.044 28.5007 170.484 28.762C169.934 29.014 169.35 29.14 168.734 29.14ZM174.867 26.746L174.531 25.136L178.031 21.622H180.327L174.867 26.746ZM173.257 29V18.64H174.979V29H173.257ZM178.241 29L175.525 25.71L176.743 24.674L180.369 29H178.241ZM190.363 29.14C189.653 29.14 189.005 29.0187 188.417 28.776C187.829 28.5333 187.32 28.188 186.891 27.74C186.461 27.2827 186.125 26.746 185.883 26.13C185.649 25.5047 185.533 24.8233 185.533 24.086C185.533 23.3767 185.659 22.7187 185.911 22.112C186.163 21.5053 186.513 20.9733 186.961 20.516C187.409 20.0587 187.931 19.704 188.529 19.452C189.126 19.2 189.775 19.074 190.475 19.074C190.951 19.074 191.413 19.144 191.861 19.284C192.309 19.424 192.719 19.62 193.093 19.872C193.466 20.1147 193.779 20.3993 194.031 20.726L192.869 22C192.626 21.748 192.374 21.538 192.113 21.37C191.861 21.1927 191.595 21.062 191.315 20.978C191.044 20.8847 190.764 20.838 190.475 20.838C190.045 20.838 189.639 20.9173 189.257 21.076C188.883 21.2347 188.557 21.4587 188.277 21.748C188.006 22.0373 187.791 22.3827 187.633 22.784C187.474 23.176 187.395 23.6147 187.395 24.1C187.395 24.5947 187.469 25.0427 187.619 25.444C187.777 25.8453 187.997 26.1907 188.277 26.48C188.566 26.7693 188.907 26.9933 189.299 27.152C189.7 27.3013 190.139 27.376 190.615 27.376C190.923 27.376 191.221 27.334 191.511 27.25C191.8 27.166 192.066 27.0493 192.309 26.9C192.561 26.7413 192.789 26.5593 192.995 26.354L193.891 27.796C193.667 28.048 193.368 28.2767 192.995 28.482C192.621 28.6873 192.201 28.8507 191.735 28.972C191.277 29.084 190.82 29.14 190.363 29.14ZM195.607 29V18.64H197.315V23.134L196.993 23.302C197.086 22.966 197.268 22.6627 197.539 22.392C197.81 22.112 198.132 21.888 198.505 21.72C198.878 21.552 199.261 21.468 199.653 21.468C200.213 21.468 200.68 21.58 201.053 21.804C201.436 22.028 201.72 22.364 201.907 22.812C202.103 23.26 202.201 23.82 202.201 24.492V29H200.479V24.618C200.479 24.2447 200.428 23.9367 200.325 23.694C200.222 23.442 200.064 23.26 199.849 23.148C199.634 23.0267 199.373 22.9707 199.065 22.98C198.813 22.98 198.58 23.022 198.365 23.106C198.16 23.1807 197.978 23.2927 197.819 23.442C197.67 23.582 197.548 23.7453 197.455 23.932C197.371 24.1187 197.329 24.324 197.329 24.548V29H196.475C196.307 29 196.148 29 195.999 29C195.859 29 195.728 29 195.607 29ZM207.736 29.14C206.962 29.14 206.276 28.9767 205.678 28.65C205.09 28.3233 204.628 27.88 204.292 27.32C203.966 26.7507 203.802 26.102 203.802 25.374C203.802 24.7953 203.896 24.268 204.082 23.792C204.269 23.316 204.526 22.9053 204.852 22.56C205.188 22.2053 205.585 21.9347 206.042 21.748C206.509 21.552 207.018 21.454 207.568 21.454C208.054 21.454 208.506 21.5473 208.926 21.734C209.346 21.9207 209.71 22.1773 210.018 22.504C210.326 22.8213 210.56 23.204 210.718 23.652C210.886 24.0907 210.966 24.5713 210.956 25.094L210.942 25.696H204.964L204.642 24.52H209.5L209.276 24.758V24.45C209.248 24.1607 209.155 23.9087 208.996 23.694C208.838 23.47 208.632 23.2973 208.38 23.176C208.138 23.0453 207.867 22.98 207.568 22.98C207.111 22.98 206.724 23.0687 206.406 23.246C206.098 23.4233 205.865 23.68 205.706 24.016C205.548 24.3427 205.468 24.7533 205.468 25.248C205.468 25.724 205.566 26.1393 205.762 26.494C205.968 26.8487 206.252 27.124 206.616 27.32C206.99 27.5067 207.424 27.6 207.918 27.6C208.264 27.6 208.581 27.544 208.87 27.432C209.16 27.32 209.472 27.1193 209.808 26.83L210.662 28.02C210.41 28.2533 210.121 28.454 209.794 28.622C209.477 28.7807 209.141 28.9067 208.786 29C208.432 29.0933 208.082 29.14 207.736 29.14ZM215.785 29.14C215.095 29.14 214.474 28.972 213.923 28.636C213.373 28.3 212.939 27.8427 212.621 27.264C212.304 26.6853 212.145 26.032 212.145 25.304C212.145 24.576 212.304 23.9227 212.621 23.344C212.939 22.7653 213.373 22.308 213.923 21.972C214.474 21.636 215.095 21.468 215.785 21.468C216.448 21.468 217.05 21.594 217.591 21.846C218.133 22.098 218.553 22.448 218.851 22.896L217.899 24.044C217.759 23.848 217.582 23.6707 217.367 23.512C217.153 23.3533 216.924 23.2273 216.681 23.134C216.439 23.0407 216.196 22.994 215.953 22.994C215.543 22.994 215.174 23.0967 214.847 23.302C214.53 23.498 214.278 23.7733 214.091 24.128C213.905 24.4733 213.811 24.8653 213.811 25.304C213.811 25.7427 213.905 26.1347 214.091 26.48C214.287 26.8253 214.549 27.1007 214.875 27.306C215.202 27.5113 215.566 27.614 215.967 27.614C216.21 27.614 216.443 27.5767 216.667 27.502C216.901 27.418 217.12 27.3013 217.325 27.152C217.531 27.0027 217.722 26.816 217.899 26.592L218.851 27.754C218.534 28.1647 218.095 28.5007 217.535 28.762C216.985 29.014 216.401 29.14 215.785 29.14ZM221.918 26.746L221.582 25.136L225.082 21.622H227.378L221.918 26.746ZM220.308 29V18.64H222.03V29H220.308ZM225.292 29L222.576 25.71L223.794 24.674L227.42 29H225.292ZM231.752 29.14C231.015 29.14 230.357 28.9767 229.778 28.65C229.199 28.314 228.742 27.8567 228.406 27.278C228.07 26.6993 227.902 26.0413 227.902 25.304C227.902 24.5667 228.07 23.9087 228.406 23.33C228.742 22.7513 229.199 22.2987 229.778 21.972C230.357 21.636 231.015 21.468 231.752 21.468C232.48 21.468 233.133 21.636 233.712 21.972C234.291 22.2987 234.743 22.7513 235.07 23.33C235.406 23.9087 235.574 24.5667 235.574 25.304C235.574 26.0413 235.406 26.6993 235.07 27.278C234.743 27.8567 234.291 28.314 233.712 28.65C233.133 28.9767 232.48 29.14 231.752 29.14ZM231.752 27.614C232.153 27.614 232.508 27.5113 232.816 27.306C233.133 27.1007 233.381 26.8253 233.558 26.48C233.745 26.1347 233.833 25.7427 233.824 25.304C233.833 24.856 233.745 24.4593 233.558 24.114C233.381 23.7687 233.133 23.498 232.816 23.302C232.508 23.0967 232.153 22.994 231.752 22.994C231.351 22.994 230.987 23.0967 230.66 23.302C230.343 23.498 230.095 23.7733 229.918 24.128C229.741 24.4733 229.652 24.8653 229.652 25.304C229.652 25.7427 229.741 26.1347 229.918 26.48C230.095 26.8253 230.343 27.1007 230.66 27.306C230.987 27.5113 231.351 27.614 231.752 27.614ZM239.816 29.14C239.284 29.14 238.822 29.0233 238.43 28.79C238.038 28.5473 237.74 28.2067 237.534 27.768C237.329 27.32 237.226 26.788 237.226 26.172V21.622H238.948V25.808C238.948 26.2 239.009 26.536 239.13 26.816C239.252 27.0867 239.429 27.2967 239.662 27.446C239.896 27.5953 240.176 27.67 240.502 27.67C240.745 27.67 240.964 27.6327 241.16 27.558C241.366 27.474 241.543 27.362 241.692 27.222C241.842 27.0727 241.958 26.9 242.042 26.704C242.126 26.4987 242.168 26.2793 242.168 26.046V21.622H243.89V29H242.21L242.182 27.46L242.49 27.292C242.378 27.6467 242.187 27.964 241.916 28.244C241.655 28.5147 241.342 28.734 240.978 28.902C240.614 29.0607 240.227 29.14 239.816 29.14ZM246.847 29V19.746H248.569V29H246.847ZM245.391 23.218V21.622H250.179V23.218H245.391Z" fill="white"/>
</svg>
